<svg xmlns="http://www.w3.org/2000/svg" xmlns:xlink="http://www.w3.org/1999/xlink" width="500" zoomAndPan="magnify" viewBox="0 0 375 374.999991" height="500" preserveAspectRatio="xMidYMid meet" version="1.0"><defs><clipPath id="b4c4560ede"><path d="M 198 245 L 343.972656 245 L 343.972656 296 L 198 296 Z M 198 245 " clip-rule="nonzero"/></clipPath><clipPath id="b6ad79e8f7"><path d="M 31.222656 245 L 177 245 L 177 296 L 31.222656 296 Z M 31.222656 245 " clip-rule="nonzero"/></clipPath><clipPath id="4fecd8c287"><path d="M 63 69.3125 L 312 69.3125 L 312 282 L 63 282 Z M 63 69.3125 " clip-rule="nonzero"/></clipPath></defs><g clip-path="url(#b4c4560ede)"><path fill="#a37e2c" d="M 267.871094 245.730469 C 262.359375 251.398438 256.644531 256.578125 250.800781 261.234375 C 260.65625 259.1875 271 258.121094 281.449219 258.121094 C 294.046875 258.121094 306.125 259.648438 317.226562 262.605469 C 309.695312 267.167969 301.367188 271.105469 292.480469 274.277344 C 276.429688 280.011719 259.285156 283.042969 242.894531 283.042969 C 234.484375 283.042969 226.53125 282.226562 219.28125 280.664062 C 212.296875 283.757812 205.3125 286.058594 198.445312 287.5 C 238.746094 305.59375 305.800781 294.179688 343.773438 258.8125 C 321.347656 247.558594 293.96875 243.585938 267.871094 245.730469 Z M 267.871094 245.730469 " fill-opacity="1" fill-rule="nonzero"/></g><g clip-path="url(#b6ad79e8f7)"><path fill="#a37e2c" d="M 132.101562 283.042969 C 132.101562 283.042969 132.101562 283.042969 132.097656 283.042969 C 115.710938 283.042969 98.5625 280.011719 82.511719 274.277344 C 73.625 271.105469 65.296875 267.167969 57.769531 262.605469 C 68.871094 259.648438 80.945312 258.121094 93.546875 258.121094 C 103.992188 258.121094 114.335938 259.1875 124.195312 261.238281 C 118.351562 256.578125 112.636719 251.398438 107.121094 245.730469 C 81.023438 243.585938 53.644531 247.558594 31.222656 258.8125 C 69.191406 294.179688 136.246094 305.59375 176.546875 287.5 C 169.679688 286.058594 162.699219 283.757812 155.714844 280.664062 C 148.464844 282.226562 140.511719 283.042969 132.101562 283.042969 Z M 132.101562 283.042969 " fill-opacity="1" fill-rule="nonzero"/></g><g clip-path="url(#4fecd8c287)"><path fill="#0f693a" d="M 311.285156 145.179688 C 279.835938 152.398438 249.554688 172.074219 226.8125 196.5625 C 226.230469 204.851562 225.191406 212.894531 223.707031 220.613281 C 226.992188 216.117188 230.585938 211.6875 234.46875 207.375 C 251.589844 188.359375 272.449219 173.371094 293.789062 164.429688 C 286.921875 186.523438 273.992188 208.71875 256.695312 227.574219 C 239.882812 245.90625 220.429688 259.195312 202.246094 265.160156 C 203.046875 261.605469 204.003906 257.980469 205.199219 254.308594 C 206.949219 250.5 208.539062 246.535156 209.976562 242.433594 C 209.988281 242.410156 210 242.386719 210.007812 242.363281 L 210 242.363281 C 228.019531 190.785156 221.179688 117.855469 187.496094 69.40625 C 153.8125 117.855469 146.972656 190.785156 164.992188 242.363281 L 164.984375 242.363281 C 164.996094 242.386719 165.007812 242.410156 165.019531 242.433594 C 166.453125 246.535156 168.046875 250.5 169.792969 254.308594 C 170.992188 257.976562 171.949219 261.605469 172.746094 265.160156 C 154.5625 259.195312 135.109375 245.90625 118.296875 227.574219 C 101.003906 208.71875 88.070312 186.523438 81.203125 164.429688 C 102.542969 173.371094 123.402344 188.359375 140.523438 207.375 C 144.410156 211.6875 148.003906 216.117188 151.289062 220.613281 C 149.804688 212.894531 148.761719 204.851562 148.179688 196.5625 C 125.4375 172.074219 95.160156 152.398438 63.710938 145.179688 C 72.328125 211.027344 133.945312 276.988281 187.496094 281.390625 C 241.046875 276.988281 302.667969 211.027344 311.285156 145.179688 Z M 187.496094 260.015625 C 185.027344 256.015625 182.761719 251.652344 180.71875 246.996094 C 180.125 245.449219 179.492188 243.90625 178.824219 242.363281 L 178.800781 242.363281 C 177.761719 239.695312 176.78125 236.953125 175.890625 234.121094 C 170.964844 218.515625 168.320312 200.46875 168.234375 181.929688 C 168.09375 150.660156 174.984375 119.976562 187.496094 94.84375 C 200.007812 119.976562 206.898438 150.660156 206.757812 181.929688 C 206.675781 200.46875 204.027344 218.515625 199.105469 234.121094 C 198.210938 236.953125 197.234375 239.695312 196.191406 242.363281 L 196.167969 242.363281 C 195.5 243.90625 194.871094 245.449219 194.277344 246.992188 C 192.234375 251.648438 189.96875 256.011719 187.496094 260.015625 Z M 187.496094 260.015625 " fill-opacity="1" fill-rule="nonzero"/></g></svg>